<?xml version="1.0" standalone="no"?>
<!DOCTYPE svg PUBLIC "-//W3C//DTD SVG 20010904//EN"
 "http://www.w3.org/TR/2001/REC-SVG-20010904/DTD/svg10.dtd">
<svg version="1.0" xmlns="http://www.w3.org/2000/svg"
 width="224.000000pt" height="100.000000pt" viewBox="0 0 224.000000 100.000000"
 preserveAspectRatio="xMidYMid meet">
<metadata>
Created by potrace 1.16, written by Peter Selinger 2001-2019
</metadata>
<g transform="translate(0.000000,100.000000) scale(0.100000,-0.100000)"
fill="#000000" stroke="none">
<path d="M1545 883 c-74 -322 -128 -475 -184 -523 -10 -9 -16 -20 -14 -25 2
-6 -28 -41 -66 -79 -60 -59 -71 -67 -89 -57 -41 22 -33 38 49 113 44 40 91 79
103 87 13 8 36 39 51 70 29 58 107 341 93 341 -4 0 -12 -17 -17 -37 -32 -119
-41 -159 -41 -178 0 -12 -13 -41 -29 -66 -16 -24 -32 -55 -36 -69 -3 -14 -15
-31 -26 -38 -17 -11 -19 -9 -19 18 0 17 9 48 20 70 11 22 20 53 20 70 0 31 -3
29 -117 -79 -65 -61 -125 -111 -135 -111 -24 0 -35 47 -15 63 68 54 206 172
203 175 -8 8 -83 -38 -126 -77 -25 -22 -48 -37 -53 -32 -4 4 4 28 18 52 20 35
35 99 23 99 -2 0 -41 -37 -88 -83 -107 -104 -156 -141 -175 -133 -40 15 -2 64
138 181 58 48 72 77 17 37 -16 -12 -32 -22 -35 -22 -12 0 -85 -65 -85 -76 0
-6 -12 -21 -27 -35 -20 -18 -25 -20 -20 -6 4 9 -52 -32 -124 -92 l-131 -109 0
-134 c0 -73 0 -148 1 -165 l1 -33 312 0 312 0 50 52 c56 60 98 146 95 192 -2
17 4 42 13 56 9 14 19 39 23 55 3 17 15 39 26 51 11 11 23 45 28 80 8 55 16
84 58 234 16 55 29 80 41 78 40 -5 42 0 42 102 l0 100 -29 0 c-28 0 -29 -1
-56 -117z"/>
</g>
</svg>
