<?xml version="1.0" standalone="no"?>
<!DOCTYPE svg PUBLIC "-//W3C//DTD SVG 20010904//EN"
 "http://www.w3.org/TR/2001/REC-SVG-20010904/DTD/svg10.dtd">
<svg version="1.0" xmlns="http://www.w3.org/2000/svg"
 width="64.000000pt" height="64.000000pt" viewBox="0 0 64.000000 64.000000"
 preserveAspectRatio="xMidYMid meet">

<g transform="translate(0.000000,64.000000) scale(0.100000,-0.100000)"
fill="#000000" stroke="none">
<path d="M508 575 c-17 -46 -11 -66 24 -77 16 -6 -27 -116 -58 -145 -13 -13
-26 -39 -30 -58 -3 -19 -10 -38 -15 -41 -20 -12 -8 -26 19 -20 42 10 72 50 72
96 0 22 11 64 25 95 22 51 26 55 50 49 l25 -6 0 76 0 76 -48 0 c-47 0 -48 0
-64 -45z"/>
<path d="M147 524 c-47 -34 -57 -68 -29 -96 13 -14 26 -18 41 -13 29 9 72 67
74 102 2 23 -2 28 -23 31 -15 1 -40 -8 -63 -24z"/>
<path d="M334 494 c-57 -37 -69 -59 -49 -90 22 -34 57 -31 90 8 32 38 47 72
39 93 -9 22 -35 18 -80 -11z"/>
<path d="M375 378 c-36 -19 -75 -61 -75 -79 0 -10 10 -25 21 -33 28 -19 62 -4
90 41 35 56 13 99 -36 71z"/>
<path d="M395 196 c-16 -7 -43 -25 -58 -40 -22 -20 -26 -30 -18 -44 29 -55 65
-51 111 10 33 46 38 73 14 82 -9 3 -16 6 -17 6 -1 -1 -15 -7 -32 -14z"/>
</g>
</svg>
